Coordinates
version=1
nRows=26
nColumns=22
inDegrees=yes

Units are S.I. units (second, meters, Newtons, ...)
If the header above contains a line with 'inDegrees', this indicates whether rotational values are in degrees (yes) or radians (no).

endheader
time	pelvis_tilt	pelvis_list	pelvis_rotation	pelvis_tx	pelvis_ty	pelvis_tz	hip_flexion_r	hip_adduction_r	hip_rotation_r	knee_angle_r	ankle_angle_r	subtalar_angle_r	hip_flexion_l	hip_adduction_l	hip_rotation_l	knee_angle_l	ankle_angle_l	subtalar_angle_l	lumbar_extension	lumbar_bending	lumbar_rotation
      5.57000000	     -4.91114124	     -1.91418357	    304.87181504	     -0.54438629	      0.96078522	      0.61362841	     26.42027412	     -3.42452260	     -1.20204566	    -39.49066168	      6.24365105	      3.27128998	      0.24513180	      4.81560324	     25.08766093	    -18.30362199	     14.65738140	    -11.72353288	     -0.52535638	      2.51156549	    -11.93329737
      5.58000000	     -4.94073330	     -1.99603848	    305.98203903	     -0.54022265	      0.96039370	      0.61982675	     26.73950998	     -3.25514209	     -1.02844073	    -37.86760743	      5.72819355	      3.48625402	     -0.45101315	      4.53926897	     26.11647197	    -17.97650497	     14.82139223	    -11.73755768	     -0.50120107	      2.59043282	    -11.93970789
      5.59000000	     -4.95673660	     -2.10030504	    307.08715564	     -0.53601451	      0.96002866	      0.62602287	     26.99751350	     -3.10524209	     -0.96556161	    -36.24540143	      5.11127164	      3.76816771	     -1.17879850	      4.22822111	     27.13114676	    -17.62246855	     14.99564621	    -11.74799070	     -0.50209824	      2.67423270	    -11.92934518
      5.60000000	     -4.98341388	     -2.19366073	    308.20326396	     -0.53176317	      0.95963672	      0.63215525	     27.24456031	     -2.98009531	     -1.02854971	    -34.62983784	      4.39577303	      4.09475481	     -1.86372620	      3.89620041	     28.14175769	    -17.29431247	     15.12949561	    -11.71132757	     -0.48499765	      2.76633153	    -11.91385904
      5.61000000	     -5.00358866	     -2.29026001	    309.30990740	     -0.52748869	      0.95925505	      0.63828125	     27.45122926	     -2.86597435	     -1.17632706	    -33.01180754	      3.66268514	      4.50152596	     -2.53923144	      3.54284644	     29.11596347	    -16.97167652	     15.24289008	    -11.63478921	     -0.47397011	      2.85557072	    -11.89186839
      5.62000000	     -5.02079027	     -2.38019693	    310.40824195	     -0.52321323	      0.95885855	      0.64439430	     27.63615306	     -2.75857757	     -1.38065852	    -31.40514048	      2.96844220	      4.95460673	     -3.19037163	      3.17494105	     30.06793255	    -16.66503605	     15.36169987	    -11.52394241	     -0.45967423	      2.93737582	    -11.86257361
      5.63000000	     -5.03592642	     -2.46067623	    311.49272245	     -0.51893749	      0.95845553	      0.65052044	     27.79483040	     -2.65007712	     -1.60779361	    -29.80230034	      2.39177681	      5.43699005	     -3.80979818	      2.79627486	     30.97549499	    -16.38300185	     15.44856269	    -11.38456197	     -0.43937791	      3.01004178	    -11.83006239
      5.64000000	     -5.02137691	     -2.56054226	    312.53090367	     -0.51467047	      0.95810381	      0.65671464	     27.89024008	     -2.52584101	     -1.80573685	    -28.21273358	      1.99832516	      6.08294252	     -4.46394505	      2.40336176	     31.82806791	    -16.08869657	     15.50299991	    -11.18115975	     -0.45991029	      3.07012751	    -11.71752956
      5.65000000	     -5.00799155	     -2.64367204	    313.56928544	     -0.51039326	      0.95772428	      0.66291738	     27.96462330	     -2.39925341	     -1.96809769	    -26.63358540	      1.82007208	      6.69079963	     -5.07248958	      2.00934144	     32.65522757	    -15.83498143	     15.55562379	    -10.96819868	     -0.46864770	      3.11843482	    -11.63032108
      5.66000000	     -4.98469754	     -2.71811671	    314.59527211	     -0.50608889	      0.95734466	      0.66915276	     28.00195517	     -2.26969919	     -2.05699496	    -25.06565601	      1.85743001	      7.33669194	     -5.65896439	      1.61732939	     33.44480895	    -15.60835838	     15.57849913	    -10.72681291	     -0.48072893	      3.15309822	    -11.53671935
      5.67000000	     -4.94904094	     -2.78767237	    315.61441262	     -0.50173458	      0.95696323	      0.67542342	     27.99536993	     -2.14019500	     -2.05741083	    -23.51246960	      2.08152256	      7.96355645	     -6.23360394	      1.22752813	     34.21563779	    -15.40421870	     15.59533232	    -10.47957820	     -0.50120621	      3.17611283	    -11.43706822
      5.68000000	     -4.90051243	     -2.84583524	    316.63058869	     -0.49730423	      0.95657504	      0.68172858	     27.94679462	     -2.02222405	     -1.95501334	    -21.97746195	      2.43972801	      8.59050045	     -6.79264388	      0.84700917	     34.96801458	    -15.22426804	     15.59342375	    -10.22602089	     -0.52363672	      3.18439482	    -11.33648319
      5.69000000	     -4.83598284	     -2.89075524	    317.64920239	     -0.49276546	      0.95617735	      0.68804286	     27.85612095	     -1.92938438	     -1.74571818	    -20.47158925	      2.87904304	      9.20946708	     -7.33764381	      0.48382598	     35.70840139	    -15.07017103	     15.57301030	     -9.97332207	     -0.54972815	      3.17863272	    -11.23552469
      5.70000000	     -4.75167743	     -2.91760818	    318.67295160	     -0.48809995	      0.95576471	      0.69436194	     27.72975007	     -1.87638442	     -1.43186552	    -19.01725297	      3.35536732	      9.81549949	     -7.87136191	      0.14455835	     36.44097081	    -14.93937003	     15.52711241	     -9.72341277	     -0.57733113	      3.15343251	    -11.13759331
      5.71000000	     -4.64306803	     -2.93026741	    319.70588451	     -0.48328902	      0.95533442	      0.70068630	     27.56992805	     -1.87101693	     -1.03241213	    -17.64511360	      3.83971064	     10.35131485	     -8.40264372	     -0.16968026	     37.17509119	    -14.83367420	     15.46899162	     -9.48859113	     -0.61208200	      3.10854177	    -11.03909999
      5.72000000	     -4.51301885	     -2.91295394	    320.74966952	     -0.47830962	      0.95486534	      0.70699474	     27.40598146	     -1.93186798	     -0.56224553	    -16.39930584	      4.31806005	     10.83381080	     -8.92141378	     -0.44805341	     37.91075091	    -14.74809818	     15.37662707	     -9.25744878	     -0.64042871	      3.03820994	    -10.94452969
      5.73000000	     -4.35782280	     -2.87473406	    321.81198620	     -0.47315170	      0.95435498	      0.71327705	     27.24591739	     -2.05908532	     -0.05880357	    -15.32804648	      4.77508519	     11.17827251	     -9.43686407	     -0.69302816	     38.66681905	    -14.69126183	     15.27228289	     -9.04675240	     -0.67244248	      2.94793925	    -10.85696161
      5.74000000	     -4.18287906	     -2.79020514	    322.89437920	     -0.46782797	      0.95377548	      0.71953658	     27.13024919	     -2.26824015	      0.43644494	    -14.48091762	      5.20967071	     11.34734379	     -9.92559332	     -0.88715561	     39.43223771	    -14.66728884	     15.12877859	     -8.86789255	     -0.68776215	      2.81538618	    -10.78446090
      5.75000000	     -3.98226543	     -2.72845398	    323.97669457	     -0.46237601	      0.95318827	      0.72580231	     27.01015438	     -2.49445201	      0.93076483	    -13.86973686	      5.55361887	     11.51440981	    -10.44921499	     -1.08791941	     40.20986435	    -14.66819665	     15.00068173	     -8.66363152	     -0.74661996	      2.70202524	    -10.69310628
      5.76000000	     -3.76697116	     -2.64141477	    325.06243977	     -0.45681288	      0.95255413	      0.73208455	     26.93545707	     -2.76298861	      1.38425183	    -13.52046030	      5.78059280	     11.58773645	    -10.96268746	     -1.26262900	     40.98664608	    -14.69745769	     14.85609041	     -8.45813819	     -0.80610674	      2.56546339	    -10.59219769
      5.77000000	     -3.55159112	     -2.52131021	    326.14318814	     -0.45119557	      0.95184638	      0.73837106	     26.94056043	     -3.05962200	      1.81862142	    -13.46578030	      5.85971457	     11.56636287	    -11.43635296	     -1.40385118	     41.75052776	    -14.78177084	     14.67789291	     -8.30739377	     -0.85631172	      2.40824714	    -10.48999164
      5.78000000	     -3.32622193	     -2.43831750	    327.22012380	     -0.44548146	      0.95116061	      0.74472424	     26.93077090	     -3.32727757	      2.21285297	    -13.64530933	      5.75940383	     11.53880112	    -11.93237462	     -1.57667917	     42.47732356	    -14.90335480	     14.49261872	     -8.12639551	     -0.94431241	      2.28918822	    -10.38066966
      5.79000000	     -3.09780056	     -2.42308054	    328.28377117	     -0.43970497	      0.95053395	      0.75118754	     26.88961946	     -3.52044710	      2.57707237	    -14.04566815	      5.40615736	     11.46950531	    -12.45758615	     -1.81275696	     43.15067440	    -15.07062325	     14.34951440	     -7.80228007	     -1.08060577	      2.23720597	    -10.24800705
      5.80000000	     -2.91819694	     -2.37593996	    329.32657776	     -0.43391859	      0.94985869	      0.75770106	     26.95615218	     -3.69044619	      2.95552478	    -14.70750605	      4.79644472	     11.46750401	    -12.88569443	     -2.03263582	     43.77351190	    -15.31629681	     14.12414081	     -7.61390824	     -1.15721378	      2.18970019	    -10.11284595
      5.81000000	     -2.75190288	     -2.41234532	    330.35212637	     -0.42806782	      0.94928863	      0.76431709	     27.00278629	     -3.75842911	      3.25984857	    -15.57605488	      3.94514654	     11.41360322	    -13.31091736	     -2.31966928	     44.28835898	    -15.64979335	     13.92428016	     -7.18061594	     -1.26580391	      2.23845495	     -9.96202801
      5.82000000	     -2.62910093	     -2.46216870	    331.35269288	     -0.42218728	      0.94877018	      0.77099928	     27.11071784	     -3.76845583	      3.51888396	    -16.64686302	      2.93967236	     11.47077893	    -13.66296300	     -2.61661140	     44.72864579	    -16.07097726	     13.62700827	     -6.92696080	     -1.33559281	      2.33039191	     -9.82098083
